# File created by Blade
# Date/Time:  Thu Jan 22 16:21:39 2015
# Frame Rate: 120.000 fps
#------------------------------------------------------
:FULLY-SPECIFIED
:DEGREES
693
root 20.159297 34.713036 -10.430893 -5.060375 10.600457 -8.462909
RightUpLeg 14.600084 -0.463159 28.962366
RightLeg -7.064216 -0.000000 0.000000
RightFoot -8.639144 -9.416684 3.657097
RightToeBase 5.903645 -0.000000 -0.000000
LeftUpLeg -20.666364 -21.086981 -3.599505
LeftLeg 9.926124 -0.000000 -0.000000
LeftFoot 14.218736 8.207069 -9.169518
LeftToeBase 12.509752 -0.000000 -0.000000
Spine 20.521537 3.138575 -46.893655
RightShoulder -10.015896 4.469998 -46.636177
RightArm 63.242480 67.605368 12.238990
RightForeArm -17.522623 -0.000000 26.263725
RightHand 21.354197 -0.000000 -48.363965
RightHandThumb1 -24.326973 -0.000000 -32.862282
LeftShoulder -4.434278 36.031475 1.484377
LeftArm 37.444075 -11.332674 -61.733396
LeftForeArm 33.423285 -0.000000 10.049991
LeftHand -19.212333 0.000000 -10.501461
LeftHandThumb1 -26.253704 0.000000 33.147579
Head 35.578835 58.409449 -19.122519
694
root 20.157360 34.712158 -10.429043 -5.040287 10.650163 -8.457060
RightUpLeg 14.577860 -0.455459 28.966737
RightLeg -7.081212 -0.000000 0.000000
RightFoot -8.625332 -9.488199 3.695946
RightToeBase 6.067520 -0.000000 -0.000000
LeftUpLeg -20.685103 -21.102353 -3.611182
LeftLeg 9.929626 -0.000000 -0.000000
LeftFoot 14.221797 8.184095 -9.155779
LeftToeBase 12.525244 -0.000000 -0.000000
Spine 20.515738 3.172386 -46.914420
RightShoulder -9.955431 4.453611 -46.510497
RightArm 62.888541 67.568532 11.733828
RightForeArm -17.105977 -0.000000 26.092677
RightHand 21.543401 -0.000000 -48.586321
RightHandThumb1 -24.326973 -0.000000 -32.862282
LeftShoulder -4.387962 36.055795 1.552087
LeftArm 37.482241 -11.392104 -61.812729
LeftForeArm 33.514474 -0.000000 10.086984
LeftHand -19.335244 -0.000000 -10.455722
LeftHandThumb1 -26.253704 0.000000 33.147579
Head 35.614882 58.263717 -19.140689
695
root 20.154615 34.709830 -10.428845 -5.033846 10.705621 -8.456907
RightUpLeg 14.567083 -0.456228 28.973385
RightLeg -7.118229 -0.000000 0.000000
RightFoot -8.608154 -9.501366 3.657213
RightToeBase 5.875574 -0.000000 -0.000000
LeftUpLeg -20.692445 -21.117809 -3.623473
LeftLeg 9.931362 -0.000000 -0.000000
LeftFoot 14.225378 8.157219 -9.126645
LeftToeBase 12.523598 -0.000000 -0.000000
Spine 20.562877 3.187335 -46.892515
RightShoulder -9.964651 4.428196 -46.505531
RightArm 62.824011 67.583523 11.646971
RightForeArm -17.049581 -0.000000 26.022767
RightHand 21.590356 -0.000000 -48.646819
RightHandThumb1 -24.326973 -0.000000 -32.862282
LeftShoulder -4.387959 36.019184 1.535527
LeftArm 37.491894 -11.367643 -61.770266
LeftForeArm 33.510408 -0.000000 10.099040
LeftHand -19.323301 -0.000000 -10.468013
LeftHandThumb1 -26.253704 0.000000 33.147579
Head 35.847264 58.310738 -18.872230
696
root 20.152141 34.709103 -10.428918 -5.009045 10.747426 -8.452577
RightUpLeg 14.539429 -0.440338 28.972615
RightLeg -7.130604 -0.000000 0.000000
RightFoot -8.608019 -9.520786 3.697440
RightToeBase 6.137824 -0.000000 -0.000000
LeftUpLeg -20.718944 -21.138559 -3.623708
LeftLeg 9.929428 -0.000000 -0.000000
LeftFoot 14.230629 8.151399 -9.139039
LeftToeBase 12.529440 -0.000000 -0.000000
Spine 20.554462 3.231160 -46.918886
RightShoulder -9.931510 4.381148 -46.423402
RightArm 62.624676 67.594223 11.421357
RightForeArm -17.032200 -0.000000 25.978878
RightHand 21.653067 -0.000000 -48.728977
RightHandThumb1 -24.326973 -0.000000 -32.862282
LeftShoulder -4.353780 36.039844 1.603592
LeftArm 37.543463 -11.417481 -61.844406
LeftForeArm 33.586950 0.000000 10.118856
LeftHand -19.342750 -0.000000 -10.431910
LeftHandThumb1 -26.253704 0.000000 33.147579
Head 35.740239 58.108284 -19.085122
697
root 20.149291 34.707634 -10.428230 -4.999063 10.786972 -8.443627
RightUpLeg 14.521996 -0.459444 28.968493
RightLeg -7.144909 -0.000000 0.000000
RightFoot -8.603853 -9.523704 3.662885
RightToeBase 5.889618 -0.000000 -0.000000
LeftUpLeg -20.731768 -21.165475 -3.631909
LeftLeg 9.935554 -0.000000 -0.000000
LeftFoot 14.223039 8.144723 -9.154271
LeftToeBase 12.533951 -0.000000 -0.000000
Spine 20.575351 3.259645 -46.930173
RightShoulder -9.918845 4.340899 -46.403717
RightArm 62.616895 67.633895 11.430838
RightForeArm -17.053608 -0.000000 25.975014
RightHand 21.564111 -0.000000 -48.706827
RightHandThumb1 -24.326973 -0.000000 -32.862282
LeftShoulder -4.347159 36.030952 1.615002
LeftArm 37.552737 -11.434964 -61.845077
LeftForeArm 33.569898 -0.000000 10.157839
LeftHand -19.334736 -0.000000 -10.456371
LeftHandThumb1 -26.253704 0.000000 33.147579
Head 35.857715 58.060072 -19.008478
698
root 20.145024 34.706401 -10.428641 -4.986270 10.818212 -8.439295
RightUpLeg 14.500353 -0.441315 28.975904
RightLeg -7.141788 -0.000000 0.000000
RightFoot -8.613376 -9.559645 3.705132
RightToeBase 6.129442 -0.000000 -0.000000
LeftUpLeg -20.747547 -21.183496 -3.631465
LeftLeg 9.938042 -0.000000 -0.000000
LeftFoot 14.216812 8.136023 -9.145908
LeftToeBase 12.537394 -0.000000 -0.000000
Spine 20.593061 3.293602 -46.938302
RightShoulder -9.907012 4.316487 -46.387866
RightArm 62.614723 67.665017 11.448693
RightForeArm -17.092366 -0.000000 25.969283
RightHand 21.501970 0.000000 -48.620886
RightHandThumb1 -24.326973 -0.000000 -32.862282
LeftShoulder -4.355532 36.032953 1.618649
LeftArm 37.587111 -11.465949 -61.855450
LeftForeArm 33.578331 0.000000 10.188423
LeftHand -19.323616 -0.000000 -10.485214
LeftHandThumb1 -26.253704 0.000000 33.147579
Head 35.994070 58.047052 -18.888366
699
root 20.141300 34.704952 -10.429500 -4.969929 10.848648 -8.430304
RightUpLeg 14.478711 -0.439466 28.974155
RightLeg -7.157134 -0.000000 0.000000
RightFoot -8.605091 -9.562328 3.661987
RightToeBase 5.942954 -0.000000 -0.000000
LeftUpLeg -20.767467 -21.209357 -3.631663
LeftLeg 9.936254 -0.000000 -0.000000
LeftFoot 14.216947 8.135573 -9.164901
LeftToeBase 12.548176 -0.000000 -0.000000
Spine 20.615019 3.318962 -46.949798
RightShoulder -9.901196 4.312127 -46.390428
RightArm 62.660823 67.699601 11.522827
RightForeArm -16.971979 -0.000000 25.956172
RightHand 21.726378 -0.000000 -48.528624
RightHandThumb1 -24.326973 -0.000000 -32.862282
LeftShoulder -4.371123 36.006874 1.608714
LeftArm 37.587438 -11.467064 -61.834576
LeftForeArm 33.591687 -0.000000 10.211372
LeftHand -19.276150 -0.000000 -10.405032
LeftHandThumb1 -26.253704 0.000000 33.147579
Head 36.066776 58.028992 -18.843795
700
root 20.138023 34.703869 -10.430312 -4.949234 10.871222 -8.416945
RightUpLeg 14.452772 -0.440921 28.963810
RightLeg -7.149822 -0.000000 0.000000
RightFoot -8.615971 -9.565809 3.677480
RightToeBase 6.153046 -0.000000 -0.000000
LeftUpLeg -20.787415 -21.229578 -3.636258
LeftLeg 9.933239 -0.000000 -0.000000
LeftFoot 14.229597 8.131957 -9.145452
LeftToeBase 12.483170 -0.000000 -0.000000
Spine 20.626749 3.349795 -46.971713
RightShoulder -9.889458 4.342172 -46.376845
RightArm 62.642540 67.707398 11.504261
RightForeArm -16.705979 0.000000 25.931270
RightHand 22.006699 -0.000000 -48.337119
RightHandThumb1 -24.326973 -0.000000 -32.862282
LeftShoulder -4.374020 35.999893 1.604555
LeftArm 37.587745 -11.484231 -61.818030
LeftForeArm 33.615793 0.000000 10.250357
LeftHand -19.326261 -0.000000 -10.390489
LeftHandThumb1 -26.253704 0.000000 33.147579
Head 36.182515 58.038640 -18.750279
701
root 20.132506 34.702946 -10.431678 -4.931163 10.902483 -8.412110
RightUpLeg 14.428404 -0.438886 28.969996
RightLeg -7.165634 -0.000000 0.000000
RightFoot -8.598373 -9.593560 3.672106
RightToeBase 6.138636 -0.000000 -0.000000
LeftUpLeg -20.812276 -21.240558 -3.632858
LeftLeg 9.933748 -0.000000 -0.000000
LeftFoot 14.219014 8.134962 -9.171313
LeftToeBase 12.560231 -0.000000 -0.000000
Spine 20.647686 3.372999 -46.983132
RightShoulder -9.890565 4.343470 -46.393351
RightArm 62.585563 67.693347 11.482090
RightForeArm -17.081056 -0.000000 25.956549
RightHand 21.584889 -0.000000 -48.447098
RightHandThumb1 -24.326973 -0.000000 -32.862282
LeftShoulder -4.373240 36.020567 1.604012
LeftArm 37.607266 -11.523849 -61.810992
LeftForeArm 33.574069 -0.000000 10.288017
LeftHand -19.224001 -0.000000 -10.416054
LeftHandThumb1 -26.253704 0.000000 33.147579
Head 36.279006 58.046795 -18.689047
702
root 20.127563 34.700829 -10.434859 -4.897948 10.933177 -8.402907
RightUpLeg 14.389414 -0.433814 28.968498
RightLeg -7.178600 -0.000000 0.000000
RightFoot -8.586132 -9.593365 3.641614
RightToeBase 6.119855 -0.000000 -0.000000
LeftUpLeg -20.863276 -21.247384 -3.632415
LeftLeg 9.955566 -0.000000 -0.000000
LeftFoot 14.216807 8.117647 -9.175190
LeftToeBase 12.560634 -0.000000 -0.000000
Spine 20.671910 3.380556 -46.986441
RightShoulder -9.932258 4.352480 -46.422986
RightArm 62.659362 67.672357 11.565263
RightForeArm -17.185128 -0.000000 25.931788
RightHand 21.609712 0.000000 -48.522757
RightHandThumb1 -24.326973 -0.000000 -32.862282
LeftShoulder -4.383918 36.035338 1.579826
LeftArm 37.623472 -11.545196 -61.777304
LeftForeArm 33.513975 -0.000000 10.334022
LeftHand -19.109604 -0.000000 -10.553015
LeftHandThumb1 -26.253704 0.000000 33.147579
Head 36.485293 58.117142 -18.497531
703
root 20.122056 34.698836 -10.436749 -4.886414 10.957388 -8.399168
RightUpLeg 14.373533 -0.458956 28.968036
RightLeg -7.201657 -0.000000 0.000000
RightFoot -8.565049 -9.571324 3.616609
RightToeBase 5.885136 -0.000000 -0.000000
LeftUpLeg -20.879497 -21.246131 -3.635885
LeftLeg 9.962231 -0.000000 -0.000000
LeftFoot 14.221323 8.090246 -9.143224
LeftToeBase 12.520769 -0.000000 -0.000000
Spine 20.714668 3.391672 -46.979022
RightShoulder -9.967432 4.358112 -46.429592
RightArm 62.675570 67.667032 11.504857
RightForeArm -16.717399 -0.000000 25.824397
RightHand 21.900147 -0.000000 -48.573722
RightHandThumb1 -24.326973 -0.000000 -32.862282
LeftShoulder -4.404226 36.022006 1.537866
LeftArm 37.613842 -11.556962 -61.731811
LeftForeArm 33.490978 -0.000000 10.368787
LeftHand -19.181992 -0.000000 -10.526755
LeftHandThumb1 -26.253704 0.000000 33.147579
Head 36.674602 58.208526 -18.314724
704
root 20.116690 34.696979 -10.439058 -4.877712 10.980237 -8.397324
RightUpLeg 14.360200 -0.485081 28.968808
RightLeg -7.217255 -0.000000 0.000000
RightFoot -8.549889 -9.550526 3.595487
RightToeBase 5.863513 -0.000000 -0.000000
LeftUpLeg -20.903089 -21.227514 -3.643400
LeftLeg 9.985488 -0.000000 -0.000000
LeftFoot 14.212682 8.077155 -9.137908
LeftToeBase 12.546032 -0.000000 -0.000000
Spine 20.752580 3.407271 -46.980289
RightShoulder -9.978133 4.351109 -46.440641
RightArm 62.761168 67.693045 11.574683
RightForeArm -16.710296 -0.000000 25.796697
RightHand 21.949673 -0.000000 -48.646489
RightHandThumb1 -24.326973 -0.000000 -32.862282
LeftShoulder -4.405342 36.014414 1.536143
LeftArm 37.601818 -11.575652 -61.728731
LeftForeArm 33.490445 0.000000 10.409941
LeftHand -19.291323 -0.000000 -10.461987
LeftHandThumb1 -26.253704 0.000000 33.147579
Head 36.790242 58.264568 -18.247707
